# xmcd
#
# Track frame offsets:
#	150
#	15147
#	30739
#	42068
#	57951
#	68476
#	82423
#	98902
#	112409
#	134190
#	147923
#	160720
#	174109
#	189203
#	203662
#
# Disc length: 2847 seconds
#
# Revision: 1
# Processed by: cddbd v1.5.2PL0 Copyright (c) Steve Scherf et al.
# Submitted via: EasyCDDAExtractor 16.0.6.1
#
DISCID=c60b1d0f
DTITLE=Τα καλύτερα ελληνικά τραγούδια 1964
DYEAR=1964
DGENRE=Λαϊκή
TTITLE0=Μπιθικώτσης Γρηγόρης - Τριαντάφυλλα σπασμένα [ΓΜπιθικώτση-ΚΣιμόπουλου]
TTITLE1=Μοσχολιού Βίκυ - Είπα να σβήσω τα παλιά [ΑΚαλδάρα]
TTITLE2=Μπιθικώτσης Γρηγόρης - Στα χέρια σου μεγάλωσαν [ΣΞαρχάκου-ΛΠαπαδόπουλο
TTITLE2=υ]
TTITLE3=Γαβαλάς Πάνος - Όνειρο δεμένο [ΣΞαρχάκου-ΒΓκούφα]
TTITLE4=Μπιθικώτσης Γρηγόρης - Δεν σού χρωστάω τίποτα [ΣΞαρχάκου-ΛΠαπαδόπουλου
TTITLE4=]
TTITLE5=Μοσχολιού Βίκυ - Χωρισμός [ΓΖαμπέτα-ΔΧριστοδούλου]
TTITLE6=Μπιθικώτσης Γρηγόρης - Η μπαλάντα του Αντρίκου [ΜΘεοδωράκη-ΚΒάρναλη]
TTITLE7=Φαραντούρη Μαρία - Το γελαστό παιδί [ΜΘεοδωράκη-Μπρένταν Μπήαμ, απόδ. 
TTITLE7=ΒΡώτα]
TTITLE8=Μπιθικώτσης Γρηγόρης - Της δικαιοσύνης ήλιε νοητέ [ΜΘεοδωράκη-ΟΕλύτη]
TTITLE9=Μοσχολιού Βίκυ - Βάλε κι άλλο πιάτο στο τραπέζι [ΣΞαρχάκου-ΛΠαπαδόπουλ
TTITLE9=ου]
TTITLE10=Χατζής Κώστας - Μιά Παναγιά [ΜΧατζιδάκι-ΝΓκάτσου]
TTITLE11=Μπιρμπίλη Σούλα - Του μικρού βοριά [ΜΘεοδωράκη-ΟΕλύτη]
TTITLE12=Ζωγράφος Γιώργος - Άκρη δεν έχει ο ουρανός [ΝΜαυρουδή-ΝΓκάτσου]
TTITLE13=Χατζής Κώστας - Το αστέρι του βοριά ΜΧατζιδάκι-ΝΓκάτσου]
TTITLE14=Χωματά Καίτη - Μιά αγάπη για το καλοκαίρι [ΓΣπανού-ΓΠαπαστεφάνου]
EXTD=
EXTT0=
EXTT1=
EXTT2=
EXTT3=
EXTT4=
EXTT5=
EXTT6=
EXTT7=
EXTT8=
EXTT9=
EXTT10=
EXTT11=
EXTT12=
EXTT13=
EXTT14=
PLAYORDER=
